<?xml version="1.0" encoding="UTF-8"?><svg id="Layer_2" data-name="Layer 2" xmlns="http://www.w3.org/2000/svg" viewBox="0 0 968.9 968.85"><defs><style> .cls-1 { fill: #000; stroke-width: 0px; } </style></defs><g id="Layer_1-2" data-name="Layer 1"><g><path class="cls-1" d="M0,472.06c.4-5.91.81-11.83,1.19-17.74,5.89-91.2,34.8-174.48,87.65-248.97C154.86,112.27,243.31,50.22,352.85,18.36c25.73-7.48,52.01-12.39,78.67-15.31,25.98-2.84,52.01-3.87,78.08-2.35,96.38,5.64,183.88,36.47,261.78,93.64,68.19,50.05,119.56,113.94,154.55,190.93,16.13,35.49,27.58,72.48,34.72,110.84,5.17,27.81,7.67,55.85,8.24,84.09.03,1.27,0,2.54,0,3.98h-6.34c-4.67-155.72-65.47-283.85-189.31-379.47C683.58,35.47,580.64,3.28,467.47,7.58c-125.92,4.79-234.32,52.26-322.86,142C56.11,239.27,11.73,348.52,6.87,474.65H0v-2.6Z"/><path class="cls-1" d="M472.14,968.85c-6.02-.4-12.05-.82-18.07-1.21-78.12-4.97-150.77-27.6-218.02-67.59-41.39-24.6-78.25-54.8-110.49-90.53-54.42-60.32-91.49-129.98-111.2-208.8-6.35-25.38-10.61-51.12-12.53-77.23-.29-3.99-.61-7.97-.94-12.23h6.34c12.68,151.58,78.24,274.18,202.47,363.13,86.76,62.12,184.72,90.11,291.35,87.03,46.67-1.35,92.16-9.9,136.42-24.9,44.27-15,85.45-36.01,123.56-63.07,38.28-27.18,71.81-59.34,100.59-96.42,28.67-36.93,51.43-77.23,68.24-120.84,16.79-43.54,26.94-88.62,30.59-135.3h7.03c-.85,8.38-1.47,16.64-2.55,24.84-3.55,26.99-9.15,53.55-17.12,79.6-17.6,57.5-44.79,110.02-81.89,157.37-47.59,60.73-106.39,107.44-176.18,140.3-39.05,18.39-79.92,31.14-122.43,38.56-22.05,3.85-44.28,6.26-66.69,6.77-1.28.03-2.55.33-3.82.51h-24.68Z"/><path class="cls-1" d="M398.39,555.84c-1.74,0-2.88,0-4.03,0-70.88,0-141.76-.02-212.64.06-2.8,0-4.04-.52-4.72-3.59-4.59-20.72-7.28-41.63-7.82-62.85-1.26-49.05,8.52-95.81,29.01-140.33,10.85-23.56,24.6-45.34,40.83-65.57.33-.41.52-.94,1.05-1.94,52.98,91.77,105.5,182.74,158.32,274.23Z"/><path class="cls-1" d="M267,253.36c36.77-34.76,79.17-59.48,127.47-73.97,52.91-15.87,104.51-15.25,140.65-8.65-52.58,91.07-105.08,182.02-157.9,273.5-36.87-63.86-73.5-127.29-110.22-190.87Z"/><path class="cls-1" d="M433.64,792.63c52.67-91.22,105.13-182.08,157.86-273.39,2.55,4.35,4.94,8.4,7.29,12.47,33.74,58.43,67.46,116.86,101.28,175.25,1.44,2.49,1.08,3.73-.94,5.59-42.98,39.6-92.93,65.69-150.15,77.81-20.68,4.38-41.58,6.54-62.69,6.66-16.66.1-33.25-1.18-49.73-3.62-.84-.13-1.66-.44-2.91-.77Z"/><path class="cls-1" d="M573.68,178.88c98.31,31.85,166.66,95.32,206.01,191.04h-316.29c36.77-63.7,73.37-127.09,110.29-191.04Z"/><path class="cls-1" d="M728.44,681.38c-52.68-91.25-105.16-182.16-157.87-273.46h220.39c11.04,46.69,11.77,93.53,1.65,140.48-10.65,49.39-32.17,93.55-64.17,132.97Z"/><path class="cls-1" d="M189.58,593.38h315.75c-.95,1.69-1.72,3.08-2.51,4.44-35.17,60.96-70.37,121.9-105.45,182.91-1.61,2.8-3.05,3.31-6.04,2.37-58.31-18.47-107.46-50.82-147.22-97.28-23.02-26.9-40.85-56.96-53.71-89.95-.27-.68-.46-1.39-.82-2.49Z"/><path class="cls-1" d="M545.84,113.76c7.93-25.28,15.76-50.21,23.69-75.49,11.29,3.54,22.44,7.03,33.8,10.59-.8,15.86-1.6,31.61-2.4,47.37.29.08.59.16.88.24,2.49-3.98,4.99-7.95,7.45-11.93,5.29-8.54,10.6-17.06,15.81-25.65,1.15-1.9,2.14-2.67,4.59-1.84,8.99,3.03,18.08,5.73,27.13,8.57.8.25,1.57.62,2.55,1.02-7.9,25.15-15.75,50.18-23.64,75.31-7.9-2.48-15.56-4.89-23.77-7.47,5.45-16.26,10.83-32.28,16.2-48.3-.06-.08-.11-.16-.17-.24-9.6,14.82-19.2,29.64-28.85,44.54-5.48-1.74-10.77-3.55-16.15-5.06-2.02-.57-2.48-1.53-2.41-3.43.51-13.39.97-26.79,1.39-40.19.11-3.41.02-6.83.02-9.9-4.54,15.96-9.15,32.19-13.87,48.79-7.66-2.38-14.71-4.58-22.25-6.93Z"/><path class="cls-1" d="M116.34,318.51c11.81,5.5,23.01,10.71,34.4,16.01-3.25,7.01-6.36,13.74-9.65,20.84-23.86-11.05-47.6-22.05-71.74-33.23,2.31-5.04,4.8-9.91,6.76-14.97,1.42-3.68,3.66-5.46,7.52-6.42,14.03-3.5,27.95-7.38,41.92-11.12.72-.19,1.41-.48,3.03-1.04-12.33-5.74-23.95-11.15-35.95-16.74,3.23-6.98,6.37-13.77,9.65-20.85,24,11.12,47.75,22.13,71.76,33.25-2.97,6.43-5.76,12.72-8.84,18.86-.5.99-2.2,1.59-3.46,1.96-14.07,4.17-28.17,8.25-42.26,12.36-.81.24-1.6.55-3.15,1.09Z"/><path class="cls-1" d="M439.86,75.51c.87,13.08,1.68,25.37,2.51,37.91-7.8.54-15.18,1.05-22.94,1.59-1.8-26.46-3.58-52.51-5.38-78.93,5.39-.37,10.5-.31,15.44-1.18,5.04-.89,8.09,1.16,11.32,4.67,9.21,10.04,18.8,19.73,28.2,29.6.72.76,1.12,1.82,1.66,2.75.41-.27.83-.54,1.24-.81-.85-12.73-1.69-25.47-2.58-38.77,7.65-.54,15.02-1.05,22.93-1.6,1.8,26.27,3.59,52.4,5.41,78.92-7.15.48-13.91,1.03-20.67,1.27-1.12.04-2.48-1.1-3.41-2.02-10.38-10.28-20.69-20.62-31.03-30.93-.65-.65-1.37-1.24-2.71-2.45Z"/><path class="cls-1" d="M260.42,91.32c7.52-3.57,14.9-7.06,22.65-10.74,4.16,8.72,8.23,17.25,12.5,26.22,8.49-4.02,16.81-7.96,25.45-12.05-4.15-8.79-8.18-17.34-12.4-26.28,7.54-3.59,14.89-7.1,22.61-10.78,11.27,23.73,22.5,47.38,33.94,71.45-7.54,3.58-14.96,7.11-22.64,10.75-4.29-9-8.42-17.65-12.8-26.84-8.47,4-16.79,7.93-25.46,12.02,4.23,8.96,8.37,17.72,12.71,26.91-7.52,3.6-14.97,7.16-22.61,10.82-11.29-23.78-22.57-47.54-33.94-71.49Z"/><path class="cls-1" d="M768.53,135.27c10.84,11.76,22.07,22.64,31.72,34.77,10.09,12.69,9.13,27.23-1,40.31-6.93,8.94-15.1,16.47-26.43,19.4-10.98,2.85-20.87-.5-28.98-7.57-10.98-9.57-21.14-20.07-31.47-30,18.73-18.97,37.1-37.59,56.17-56.91ZM743.69,196.42c2.47,2.49,4.84,5.16,7.49,7.52,5.04,4.49,11.22,5.36,16.59,1.26,5.07-3.88,9.68-8.56,13.7-13.53,3.93-4.85,3.61-10.58-.21-15.58-2.52-3.3-5.63-6.14-8.39-9.1-9.89,9.97-19.44,19.61-29.18,29.43Z"/><path class="cls-1" d="M181.8,273.12c-20.73-16.47-41.12-32.67-61.93-49.19,14.05-17.7,28.05-35.34,42.21-53.18,4.84,3.84,9.63,7.65,14.71,11.68-8.84,11.15-17.59,22.2-26.55,33.5,2.86,2.3,5.52,4.45,8.53,6.87,7.61-9.55,15.11-18.97,22.9-28.74,4.66,3.69,9.26,7.33,14.14,11.2-7.66,9.67-15.14,19.11-22.81,28.8,3.31,2.63,6.4,5.08,9.69,7.7,9.1-11.43,18.03-22.66,27.24-34.24,4.86,3.86,9.64,7.65,14.71,11.68-14.34,18.05-28.55,35.93-42.84,53.92Z"/><path class="cls-1" d="M698.93,110.76c-2,3.2-3.81,6.1-5.8,9.29,10.44,6.56,20.63,12.96,31.09,19.53-3.2,5.11-6.27,10.02-9.56,15.29-10.42-6.5-20.64-12.88-31.18-19.46-2.18,3.48-4.27,6.82-6.56,10.48,12.43,7.81,24.64,15.48,37.05,23.27-3.35,5.36-6.54,10.47-9.95,15.92-19.49-12.2-38.83-24.31-58.38-36.55,13.97-22.3,27.87-44.49,41.99-67.04,19.18,12.01,38.26,23.95,57.55,36.03-3.31,5.29-6.51,10.39-9.96,15.91-12.05-7.53-23.99-14.99-36.3-22.68Z"/><path class="cls-1" d="M792.16,282.34c7.8-.65,15.11-1.27,22.42-1.86,17.99-1.45,35.99-2.81,53.98-4.35,7.32-.63,7.32-.8,10.42,5.96,2.74,5.98,5.41,12,8.2,17.96.67,1.42.83,2.42-.44,3.67-19.34,18.88-38.63,37.82-57.93,56.73-.14.14-.36.2-.83.45-3.44-7.55-6.91-15.06-10.24-22.64-.25-.57.27-1.8.82-2.33,1.86-1.8,4.02-3.31,5.79-5.18.68-.72,1.17-2.37.82-3.19-3.18-7.32-6.51-14.58-9.97-21.76-.39-.8-1.83-1.29-2.87-1.52-.89-.2-1.91.19-2.88.31q-6.78.83-9.68-5.51c-2.46-5.39-4.9-10.79-7.61-16.73ZM839.73,317.42c7.59-6.61,14.8-12.89,22.01-19.17-.16-.27-.31-.53-.47-.8-9.45,1.29-18.9,2.58-28.83,3.94,2.46,5.4,4.74,10.43,7.29,16.03Z"/><path class="cls-1" d="M182.55,150.47c11.29-9.15,22.38-18.13,33.46-27.13,10.81-8.78,23.53-8.65,33.58.38,10.67,9.6,13.79,23.89,6.62,34.05-3.16,4.48-7.88,7.9-12.01,11.66-2.54,2.32-5.33,4.38-8.38,6.86,5.28,6.58,10.45,13.02,15.94,19.86-6.45,5.24-12.77,10.38-19.42,15.79-16.6-20.5-33.1-40.88-49.78-61.48ZM213.87,149.25c3.6,4.45,6.94,8.59,10.48,12.97,3.18-2.59,6.16-4.88,8.99-7.34,3.42-2.99,3.54-7.08.5-10.93-3.07-3.89-6.93-4.73-10.69-2.04-3.05,2.18-5.9,4.65-9.28,7.35Z"/><path class="cls-1" d="M404.6,119.94c-7.97,2.08-15.84,4.13-24,6.26-6.7-25.67-13.31-51-19.98-76.53,8.11-2.12,15.88-4.15,24-6.27,6.66,25.53,13.28,50.88,19.98,76.54Z"/><path class="cls-1" d="M785.59,276.4c-4.81-6.94-9.41-13.57-14.11-20.36,21.65-15.01,43.15-29.91,65-45.05,4.72,6.8,9.41,13.56,14.13,20.37-21.71,15.04-43.2,29.93-65.02,45.05Z"/><path class="cls-1" d="M659.49,870.04c-3.1-11.95-6.19-23.91-9.27-35.78,4.32-3.11,4.35-3.13,7.63.62,6.62,7.57,13.22,15.17,19.8,22.78.56.65.97,1.42,1.46,2.14.25-.19.5-.37.74-.56-3.65-11.62-7.29-23.24-11.04-35.18,1.5-.81,2.88-1.56,4.6-2.49,2.03,7.05,3.99,13.87,5.96,20.68,1.68,5.8,3.2,11.65,5.16,17.35.97,2.81.2,4.19-2.31,5.15-.89.34-1.73.82-2.78,1.33-7.67-8.79-15.34-17.57-23.68-27.12,3.17,12.22,6.09,23.53,9.06,34.96-2.06,1.08-3.86,2.02-5.93,3.12-9.15-11.02-18.23-21.97-27.48-33.11,1.67-.9,3.05-1.65,4.76-2.58,7.67,9.67,15.29,19.28,22.92,28.89.13-.07.26-.14.38-.21Z"/><path class="cls-1" d="M762.1,803.82c-9.34-9.1-19.32-18.82-28.89-28.14,3.97-4.25,7.51-8.51,11.54-12.23,3.44-3.18,7.65-4.52,12.17-1.83,4.21,2.5,5.58,6.25,4.49,12.19,1.73-.59,3.36-1.44,5.07-1.68,7.27-1,13.54,6.9,11.16,14.24-.81,2.5-2.14,5.08-3.94,6.95-3.51,3.66-7.51,6.85-11.6,10.5ZM763.45,799.2c3.53-4.38,6.65-7.68,9.07-11.43,2.07-3.21,1.09-6.93-1.6-9.4-2.52-2.31-6.1-2.78-9.21-.46-3.48,2.59-6.55,5.73-9.84,8.66.69.79.96,1.12,1.25,1.43,3.22,3.49,6.45,6.99,10.34,11.2ZM749.5,784.33c2.6-3.16,5.29-5.96,7.39-9.15,1.93-2.91,1.22-5.94-1.18-8.19-2.48-2.33-5.25-2.76-8.19-.54-3.03,2.29-5.66,5.09-7.8,7.05,3.37,3.73,6.38,7.07,9.77,10.83Z"/><path class="cls-1" d="M589.42,902.25c-2.49.04-6.51-1.54-9.55-4.82-6.79-7.34-9.68-16.11-7.47-25.92,2.71-12.03,18.58-16.99,27.67-8.61,7.73,7.12,10.22,16.39,8.02,26.56-1.69,7.82-8.57,12.73-18.67,12.79ZM603.52,883.1c-.32-5.53-1.92-10.63-5.39-14.98-3.16-3.95-7.32-5.74-12.35-4.43-4.86,1.27-7.77,4.56-8.51,9.54-1.14,7.71,1.02,14.57,6.04,20.42,2.56,2.98,5.98,4.64,10.09,3.99,6.92-1.1,10.76-6.65,10.12-14.55Z"/><path class="cls-1" d="M851.48,678.76c-.67,1.57-1.24,2.92-1.94,4.57-13-5.53-25.76-10.96-39.04-16.61,2.67-5.64,4.93-11.22,7.87-16.42,2.88-5.1,7.42-6.66,12.36-5.15,5.93,1.81,8.95,5.64,9.07,11.51.01.73,0,1.46,0,2.61,7.01-.85,13.7-1.66,20.43-2.47-.55,4.65-1.12,5.16-5.35,5.56-4.41.42-8.79,1.15-13.2,1.42-2.94.18-4.4,1.62-5.18,4.22-.34,1.12-.86,2.19-1.43,3.62,5.49,2.38,10.87,4.72,16.42,7.13ZM831.18,670.05c.97-2.2,1.81-4.04,2.6-5.92.46-1.09.91-2.2,1.22-3.34,1.33-4.99-.31-8.61-4.62-10.38-4.21-1.73-7.57-.36-10.03,4.35-1.47,2.82-2.62,5.81-4.01,8.94,5.06,2.16,9.79,4.18,14.85,6.34Z"/><path class="cls-1" d="M124.92,650.65c-4.51,5.39-8.93,10.67-13.4,16.01q-2.49-4.73.95-8.69c2.61-3.03,5.06-6.21,7.82-9.09,2.04-2.13,2.67-4.18,1.18-6.82-.58-1.02-.89-2.18-1.48-3.67-5.56,1.97-11.05,3.91-16.85,5.96-.59-1.63-1.09-3-1.69-4.66,13.19-4.79,26.31-9.55,39.94-14.49,1.88,6.04,4.06,11.77,5.4,17.7,1.29,5.7-1.01,9.73-5.78,12.05-5.44,2.64-10.46,1.78-14.44-2.49-.51-.54-1-1.09-1.65-1.81ZM139.22,631.37c-5.39,1.96-10.27,3.74-15.61,5.68,1.82,3.98,3.15,7.75,5.17,11.1,2.05,3.4,5.9,4.05,9.74,2.34,3.52-1.57,5.05-4.5,4.04-8.48-.87-3.42-2.1-6.74-3.35-10.64Z"/><path class="cls-1" d="M445.58,896.97c-.54,6.02-1.07,11.89-1.62,18.02-1.65-.24-3.12-.45-4.93-.72,1.12-13.95,2.24-27.79,3.39-42.05,5.76.61,11.35.93,16.84,1.85,6.56,1.1,9.73,4.67,10.06,10.41.35,6.04-2.63,10.33-8.65,12.48-.5.18-.99.39-1.84.73,3,6.32,5.94,12.49,8.98,18.89-3.64.28-6.12-.33-7.44-4.07-1.43-4.05-3.68-7.8-5.34-11.77-.98-2.35-2.2-3.76-4.98-3.43-1.34.16-2.75-.19-4.46-.35ZM446.23,892.88c4.4,0,8.62.42,12.7-.13,3.36-.46,5.17-3.49,5.35-7.17.15-3.07-.9-5.91-3.88-6.76-4.23-1.21-8.68-1.64-13.21-2.43-.37,4-.73,7.19-.94,10.4-.13,1.91-.02,3.83-.02,6.1Z"/><path class="cls-1" d="M526.91,896.13c4.19,5.85,8.12,11.35,12.25,17.11-3.65.91-6.19.64-8.11-2.79-2-3.56-4.79-6.67-6.94-10.16-1.55-2.51-3.34-3.68-6.3-2.94-1.22.31-2.53.27-4.05.42.55,5.95,1.07,11.62,1.62,17.69-1.51.26-3.03.51-4.94.83-1.37-14.11-2.7-27.93-4.12-42.56,6.84-.24,13.4-1.01,19.86-.52,5.38.41,8.22,3.97,8.91,8.81.84,5.87-.99,10.03-5.61,12.72-.72.42-1.47.8-2.57,1.39ZM513.38,894.03c4.29-.82,8.44-1.24,12.34-2.46,3.53-1.11,4.85-4.17,4.42-8.04-.42-3.83-2.06-5.96-6.02-6.38-3.99-.42-8.07-.09-12.39-.09.58,5.96,1.07,11.06,1.64,16.98Z"/><path class="cls-1" d="M839.11,578.9c3.58,4.59,7.14,8.91,10.4,13.45,1.44,2.01,2.73,2.44,5.07,1.66,8.46-2.83,16.99-5.44,25.53-8.14.4,4.06-1.41,5.86-5.13,6.82-6.66,1.72-13.18,3.95-19.55,5.91,3.08,9.53,10.94,11.5,19.45,12.2-.5,2.02-.83,3.35-1.27,5.15-13.65-3.07-27.17-6.12-41-9.23.3-1.6.56-3.02.91-4.91,6.82,1.5,13.49,2.97,21.08,4.64-1.07-1.54-1.65-2.46-2.31-3.32-3.88-5.06-7.67-10.2-11.73-15.12-2.23-2.71-3.69-5.3-1.44-9.11Z"/><path class="cls-1" d="M775.68,726.34c1.02-1.49,1.85-2.72,2.83-4.16,6.58,4.38,12.98,8.78,19.52,12.95,2.51,1.6,5.25,2.99,8.07,3.95,3.88,1.32,7.25-.05,9.66-3.31,2.73-3.69,3.22-7.43.81-10.79-1.54-2.14-3.57-4.07-5.74-5.6-5.99-4.24-12.17-8.22-18.27-12.31-.88-.59-1.73-1.22-2.72-1.92.86-1.33,1.61-2.48,2.5-3.85.82.48,1.55.86,2.22,1.31,6.99,4.69,14.13,9.19,20.93,14.15,8.69,6.35,9.59,14.36,3.01,22.59-3.75,4.69-9.02,6.42-14.73,4.4-2.81-1-5.5-2.49-8.02-4.11-6.63-4.25-13.14-8.69-20.08-13.3Z"/><path class="cls-1" d="M398.11,907.61c-5.01-.46-5.07-.53-5.16-5.02-.02-1.19-.02-2.38-.07-3.57-.28-7.37.85-5.42-5.72-7.37-3.18-.95-7.01-2.91-9.54-1.9-2.54,1.02-3.83,5.16-5.67,7.94-.59.9-1.19,1.79-1.9,2.88-1.52-.41-3.04-.83-4.87-1.33,5.72-8.69,11.27-17.13,16.82-25.57,2.2-3.33,4.51-6.6,6.58-10.01,1.23-2.02,2.75-1.39,4.16-.69,1.05.52,2.57,1.5,2.63,2.37,1.08,13.67,1.95,27.35,2.86,41.03.03.41-.09.82-.14,1.23ZM379.64,885.53c4.4,1.13,8.39,2.16,12.77,3.28-.33-7.45-.63-14.38-.94-21.31l-.62-.18c-3.64,5.9-7.27,11.8-11.22,18.2Z"/><path class="cls-1" d="M187.84,767.3c-3.04-3.7-5.9-7.35-8.98-10.81-.53-.6-2.1-.81-2.95-.52-3.55,1.24-7.01,2.74-10.67,4.22-.98-1.2-1.92-2.35-3.06-3.75.73-.4,1.3-.79,1.93-1.03,12.48-4.73,24.96-9.47,37.49-14.08.89-.33,2.6,0,3.16.66.95,1.13,2.21,3.34,1.74,4.13-7.32,12.19-14.89,24.22-22.64,36.66-1.22-1.46-2.22-2.66-3.43-4.1,2.45-3.76,4.9-7.52,7.42-11.38ZM202.02,745.89c-.12-.17-.24-.35-.37-.52-6.49,2.69-12.98,5.37-19.86,8.22,2.82,3.44,5.45,6.65,8.34,10.18,4.08-6.14,7.98-12,11.88-17.87Z"/><path class="cls-1" d="M129.73,578.95c-13.06,7.09-25.99,14.12-39.01,21.19q-1.19-5.16,2.95-7.27c1.53-.78,2.98-1.83,4.6-2.32,3.07-.94,3.53-2.87,2.88-5.67-.7-3.04-1.37-6.11-1.66-9.21-.2-2.13-1.19-2.75-3.05-2.9-2.25-.18-4.5-.5-6.75-.76q-4.6-.53-4.6-5.62c11.49,1.78,22.94,3.56,34.4,5.33,1.28.2,2.56.34,3.84.57q5.31.95,6.4,6.67ZM124.66,577.08c-.03-.23-.06-.46-.1-.68-7.03-.83-14.05-1.67-21.34-2.53.81,4.53,1.5,8.44,2.29,12.85,6.57-3.31,12.86-6.47,19.15-9.64Z"/><path class="cls-1" d="M324.71,837.37c5.35,2.65,10.57,4.78,15.3,7.7,7.48,4.61,8.2,12.49,2.26,18.99-3.51,3.84-7.9,4.32-12.49,3.06-3.7-1.02-7.21-2.68-11.07-4.16-2.3,5.01-4.58,9.95-6.94,15.09-1.6-.72-2.93-1.32-4.54-2.04,5.8-12.82,11.51-25.45,17.47-38.64ZM320.34,859.27c3.87,1.39,7.3,2.93,10.89,3.84,4.11,1.04,7.18-.89,9-4.96,1.76-3.94,1.13-7.25-2.48-9.65-3.09-2.05-6.55-3.53-10.08-5.38-2.47,5.44-4.72,10.41-7.33,16.15Z"/><path class="cls-1" d="M843.29,542.91c.38-8.23.73-15.98,1.09-23.92h3.75v19.07c4.03.19,8.3.4,13.2.63.28-5.23.55-10.43.84-15.81h4.25c-.26,5.33-.5,10.47-.76,15.95,5.27.3,10.28.59,15.72.9.36-6.66.69-12.98,1.04-19.48h4.18c-.36,8.11-.73,16.23-1.11,24.7-14.2-.69-28-1.36-42.2-2.04Z"/><path class="cls-1" d="M248.86,834.17c1.21-.32,2.24-.59,3.56-.94.28.74.58,1.49.87,2.25,1.76,4.64,4.65,8.25,9.41,10.07,2.84,1.09,5.56.91,7.76-1.41,2.3-2.42,2.41-5.29.9-8.09-2.11-3.88-4.63-7.54-6.67-11.46-2.1-4.04-1.97-8.16,1.02-11.82,2.92-3.56,6.9-4.5,11.13-3.41,5.89,1.52,10.04,5.26,12.13,11.09.22.61.37,1.24.66,2.24-1.16.4-2.33.79-3.74,1.28-.46-.97-.91-1.9-1.35-2.84-1.58-3.38-4.01-5.89-7.56-7.14-2.39-.84-4.73-.67-6.63,1.19-2,1.96-2.23,4.39-1.22,6.88.6,1.49,1.51,2.86,2.33,4.24,1.55,2.59,3.18,5.13,4.71,7.73,4.99,8.48-2.74,17.44-10.92,16.7-7.82-.71-15.95-8.49-16.39-16.57Z"/><path class="cls-1" d="M166.27,684.19c.88,1.54,1.61,2.82,2.49,4.35-10.93,6.27-21.73,12.45-32.91,18.86,3.08,5.44,6.08,10.72,9.18,16.2-1.32.72-2.42,1.31-3.7,2-3.92-6.85-7.71-13.47-11.7-20.45,12.17-6.97,24.19-13.84,36.64-20.97Z"/><path class="cls-1" d="M81.84,525.57v-4.27c13.89-.35,27.76-.7,41.92-1.06v5.33h-41.92Z"/></g></g></svg>